<svg id="OBJECTS" xmlns="http://www.w3.org/2000/svg" xmlns:xlink="http://www.w3.org/1999/xlink" viewBox="0 0 521.09 162.62"><defs><style>.cls-1{fill:url(#linear-gradient);}.cls-2{fill:url(#linear-gradient-2);}.cls-3{fill:url(#linear-gradient-3);}.cls-4{fill:url(#linear-gradient-4);}.cls-5{fill:url(#linear-gradient-5);}.cls-6{fill:url(#linear-gradient-6);}.cls-7{fill:#c3d8e2;}.cls-8{fill:#88a9ba;}.cls-9{font-size:115px;fill:#002642;font-family:FuturaPT-Medium, Futura PT;font-weight:500;}.cls-10{fill:#5880a2;}</style><linearGradient id="linear-gradient" x1="155.91" y1="-388" x2="101.42" y2="-315.35" gradientTransform="translate(-143.3 -153.39) rotate(108.37)" gradientUnits="userSpaceOnUse"><stop offset="0" stop-color="#6d8196"/><stop offset="0.99" stop-color="#c7d6ed"/></linearGradient><linearGradient id="linear-gradient-2" x1="148.72" y1="-343.99" x2="106.89" y2="-246.39" xlink:href="#linear-gradient"/><linearGradient id="linear-gradient-3" x1="183.79" y1="-384.53" x2="206.25" y2="-291.66" xlink:href="#linear-gradient"/><linearGradient id="linear-gradient-4" x1="179.4" y1="-315.67" x2="196.89" y2="-244.36" xlink:href="#linear-gradient"/><linearGradient id="linear-gradient-5" x1="162.87" y1="-300.85" x2="180.07" y2="-219.52" xlink:href="#linear-gradient"/><linearGradient id="linear-gradient-6" x1="215.45" y1="68.87" x2="262.08" y2="-143.36" gradientTransform="translate(139.04 345.19) rotate(-83.05)" xlink:href="#linear-gradient"/></defs><title>Logo2</title><path class="cls-1" d="M175.13,120.41c-12.6-10-23.22-22.75-31.94-37.2C138.68,75.73,131.3,59.55,128.61,50,135,56.88,150.08,69.36,157,77s12.78,17,15.39,27.91c.67,2.83,1.13,5.73,1.61,8.63.58,3.51,1.09,6.84,1.09,6.84" transform="translate(-4.02 -1.38)"/><path class="cls-2" d="M133,98.66c-1.62-.92-3.23-1.85-4.83-2.81s-3.18-1.93-4.75-2.92C110,84.69,106.76,82.73,95.5,72.23c-1.14-1.23-11.11-11.8-12.21-13C77,52.09,72,47.22,65.12,42.63c6.78,0,25.48,1.53,40.9,14.31,9,7.46,14.82,18.78,20.69,29.26q1.1,2,2.18,4,2.16,4.09,4.08,8.41" transform="translate(-4.02 -1.38)"/><path class="cls-3" d="M165.24,136.43q-2.2-.87-4.44-1.64c-7.66-2.63-16.28-2.44-24.38-2.81-8.39-.38-16.86-.65-25.3.6-11.57,1.7-17.79,1.83-26.4,1,10.67,6,25.37,12.36,37.62,13.58a61.27,61.27,0,0,0,37-7.93c2.2-1,4.42-2,6.67-3" transform="translate(-4.02 -1.38)"/><path class="cls-4" d="M36,110.25c20.44,7,42-3,62.85-2.65a48.84,48.84,0,0,1,17,3.22l.06.14c-2,.84-4,1.74-5.95,2.66-1.25.59-2.49,1.18-3.75,1.75-20.53,9.27-43.37,10.68-63.11-.34A52,52,0,0,1,36,110.25" transform="translate(-4.02 -1.38)"/><path class="cls-5" d="M92.07,94.69Q81.53,96.31,71,97.59c-7.49.92-15.1,1.94-22.57,1.85a120.1,120.1,0,0,1-24.15-3.2A88.18,88.18,0,0,1,4,89.57c4.46-.66,8.87-2.12,13.29-3.29,25.59-6.79,52.3-3.78,74.76,8.41" transform="translate(-4.02 -1.38)"/><path class="cls-6" d="M133.84,58.79a311.17,311.17,0,0,1,34.41,50.81c4.76,8.86,9.22,18.35,15.68,26.17-12-7.19-24.08-14.36-36.43-21a60.66,60.66,0,0,1-8.94-9.68C133.07,98,128.27,90.32,123,83c-13-17.72-29.07-32.49-50.67-38.4-.19-.06-.32.22-.12.28,22.24,8,38.2,23.74,51.6,42.69,5,7.14,9.69,14.61,15.26,21.37.69.84,1.42,1.67,2.15,2.49-.45-.24-.9-.49-1.36-.72C110.67,96,78.33,89,45.74,88.58a291.54,291.54,0,0,0-33.43,1.64c-.2,0-.15.32,0,.31C37.58,88.94,63,89.7,87.86,94.71A190.81,190.81,0,0,1,126.14,107c-11.19,1-22.1,5.09-33,7.38a105.87,105.87,0,0,1-51.4-1.75c-.19,0-.31.22-.12.29,15.73,6.17,32.25,7.08,48.79,4,13.06-2.39,25.7-6.56,38.83-8.61,6.79,3,13.44,6.4,20,10,.42.25.85.49,1.29.71,8.43,4.6,16.75,9.52,25.11,14.56l1.35.82c-10.55-.42-21.39,3-31.68,4.57a122.6,122.6,0,0,1-52.52-2.92c-.19-.05-.31.21-.12.29,15.76,6.2,32.49,7.32,49.19,5.15,12.61-1.63,25.1-5.22,37.87-5.44,14.4,8.66,28.92,17.1,44.31,23.9.8.35,1.27-.85.51-1.24-12.27-6.23-24.14-13.16-35.95-20.18-8.08-9.79-13.72-21-19.77-32.13C159.33,89,148,72.77,134.08,58.6,134,58.46,133.71,58.63,133.84,58.79Z" transform="translate(-4.02 -1.38)"/><path class="cls-7" d="M159.17,57.58a21.33,21.33,0,0,1,2.74,6.24c.28.91.58,1.85.93,2.76.73,1.94,2.27,5,5,6.5a5.71,5.71,0,0,1,2.45,2.75,17.27,17.27,0,0,0,1.41,2.65,7.68,7.68,0,0,1,1.2,3c4.82,25.3,18.14,50.28,38,71l2,2a78.49,78.49,0,0,1,8.32,9.51l.93-.65a79.5,79.5,0,0,0-8.43-9.65l-2-2C192.18,131.32,179,106.82,174.14,82a9.9,9.9,0,0,1,.38-5.09l0,0a4,4,0,0,1,2.33-2.42,11.68,11.68,0,0,0,1.46-.73,16.1,16.1,0,0,0,2.93-2.2,15.23,15.23,0,0,0,4.31-9.18c.9.41,1.8.84,2.67,1.27A36.25,36.25,0,0,0,196.92,67c4.72,1,9.36,1.65,14.1-.26a31.51,31.51,0,0,0,4-2,19.34,19.34,0,0,0,7.11-6.57.57.57,0,0,0-.34-.83,32.65,32.65,0,0,1-7-3.32,43.39,43.39,0,0,0-5.69-2.89,36.55,36.55,0,0,0-10.67-2c.77-.46,1.53-1,2.27-1.46,1-.65,1.91-1.27,2.86-1.78,2.5-1.35,5.32-3,7.2-5.59a23.2,23.2,0,0,0,3.72-7.1,18.86,18.86,0,0,0-.9-12,44.24,44.24,0,0,0-2-4,40.36,40.36,0,0,1-2.1-4.39l-.1-.28c-.74-1.93-1.58-4.11-1.09-6a.58.58,0,0,0-.81-.65c-5.8,3-11.18,9-11.87,15.47a40.23,40.23,0,0,0-2.52-4.45l-.42-.68c-1.14-1.82-2.24-3.7-3.29-5.58C188,8,186.52,5,186.93,2a.58.58,0,0,0-.35-.61.59.59,0,0,0-.68.2l-.34.47c-2.26,3.15-4.58,6.39-4.67,11L175.76,2.48a.55.55,0,0,0-.39-.3.56.56,0,0,0-.48.11,53,53,0,0,1-6.72,4.37c-1.4.81-2.82,1.65-4.2,2.55a23.16,23.16,0,0,1-1.1-2.85c-.23-.68-.45-1.33-.69-1.92a.57.57,0,0,0-.92-.2l-.52.53a9.36,9.36,0,0,1-1.09,1.05,7.09,7.09,0,0,0-2.91,3.32,20,20,0,0,0-5.39-4.2c-.63-.39-1.25-.76-1.84-1.15a.56.56,0,0,0-.69,0,.55.55,0,0,0-.12.69c1.52,2.86.63,6.34,0,8.17a42,42,0,0,1-1.88,4.16c-.63,1.26-1.28,2.57-1.81,3.92a23.44,23.44,0,0,0-.81,14.15,24.24,24.24,0,0,0,3.59,7.61,22.71,22.71,0,0,1-4.65-5.81,45.63,45.63,0,0,1-2-4.25A45,45,0,0,0,139,28c-2.05-3.62-5-6.13-7.8-6.71a.57.57,0,0,0-.65.74c.49,1.45,0,3-.44,4.62a17.05,17.05,0,0,0-.67,2.91,11.66,11.66,0,0,0,1.65,6.76,28.12,28.12,0,0,0,8.67,9.26,77.94,77.94,0,0,0,11,6.14C153.74,53.15,157.13,54.8,159.17,57.58Z" transform="translate(-4.02 -1.38)"/><path class="cls-8" d="M159.17,57.58a21.33,21.33,0,0,1,2.74,6.24c.28.91.58,1.85.93,2.76.73,1.94,2.27,5,5,6.5a5.71,5.71,0,0,1,2.45,2.75,17.27,17.27,0,0,0,1.41,2.65,7.68,7.68,0,0,1,1.2,3c4.82,25.3,18.14,50.28,38,71l2,2a78.49,78.49,0,0,1,8.32,9.51l.93-.65a79.5,79.5,0,0,0-8.43-9.65l-2-2C192.18,131.32,179,106.82,174.14,82a9.9,9.9,0,0,1,.38-5.09l0,0a4,4,0,0,1,2.33-2.42,11.68,11.68,0,0,0,1.46-.73,16.1,16.1,0,0,0,2.93-2.2,15.23,15.23,0,0,0,4.31-9.18c.9.41,1.8.84,2.67,1.27A36.25,36.25,0,0,0,196.92,67c4.72,1,9.36,1.65,14.1-.26a31.51,31.51,0,0,0,4-2,19.34,19.34,0,0,0,7.11-6.57.57.57,0,0,0-.34-.83,32.65,32.65,0,0,1-7-3.32,43.39,43.39,0,0,0-5.69-2.89,36.55,36.55,0,0,0-10.67-2c.77-.46,1.53-1,2.27-1.46,1-.65,1.91-1.27,2.86-1.78,2.5-1.35,5.32-3,7.2-5.59a23.2,23.2,0,0,0,3.72-7.1,18.86,18.86,0,0,0-.9-12,44.24,44.24,0,0,0-2-4,40.36,40.36,0,0,1-2.1-4.39l-.1-.28c-.74-1.93-1.58-4.11-1.09-6a.58.58,0,0,0-.81-.65c-5.8,3-11.18,9-11.87,15.47a40.23,40.23,0,0,0-2.52-4.45l-.42-.68c-1.14-1.82-2.24-3.7-3.29-5.58C188,8,186.52,5,186.93,2a.58.58,0,0,0-.35-.61.59.59,0,0,0-.68.2l-.34.47c-2.26,3.15-4.58,6.39-4.67,11L175.76,2.48a.55.55,0,0,0-.39-.3.56.56,0,0,0-.48.11,53,53,0,0,1-6.72,4.37c-1.4.81-2.82,1.65-4.2,2.55a23.16,23.16,0,0,1-1.1-2.85c-.23-.68-.45-1.33-.69-1.92a.57.57,0,0,0-.92-.2l-.52.53a9.36,9.36,0,0,1-1.09,1.05,7.09,7.09,0,0,0-2.91,3.32,20,20,0,0,0-5.39-4.2c-.63-.39-1.25-.76-1.84-1.15a.56.56,0,0,0-.69,0,.55.55,0,0,0-.12.69c1.52,2.86.63,6.34,0,8.17a42,42,0,0,1-1.88,4.16c-.63,1.26-1.28,2.57-1.81,3.92a23.44,23.44,0,0,0-.81,14.15,24.24,24.24,0,0,0,3.59,7.61,22.71,22.71,0,0,1-4.65-5.81,45.63,45.63,0,0,1-2-4.25A45,45,0,0,0,139,28c-2.05-3.62-5-6.13-7.8-6.71a.57.57,0,0,0-.65.74c.49,1.45,0,3-.44,4.62a17.05,17.05,0,0,0-.67,2.91,11.66,11.66,0,0,0,1.65,6.76,28.12,28.12,0,0,0,8.67,9.26,77.94,77.94,0,0,0,11,6.14C153.74,53.15,157.13,54.8,159.17,57.58Zm-1.7-42.72a28.27,28.27,0,0,0-6.8,14.94,24.59,24.59,0,0,0,5.45,18l-1-.5c-.89-.45-1.79-.92-2.67-1.41-3.11-2.17-6.08-6.78-7.23-11.23A22.24,22.24,0,0,1,146,21.19c.5-1.3,1.14-2.59,1.76-3.83a40.3,40.3,0,0,0,1.94-4.27,12.44,12.44,0,0,0,.62-7.43l.41.25C154.12,8,157.59,10.06,157.47,14.86Zm4-9.17c.12.33.23.68.35,1A25.32,25.32,0,0,0,163,9.86c-.25.17-.5.34-.74.52a29.89,29.89,0,0,0-3.72,3.28,8.37,8.37,0,0,0-1-3.24c.2-1.62,1.22-2.64,2.71-3.67A8.9,8.9,0,0,0,161.44,5.69Zm13.61-2.08,10.72,22.11c1.87,3.87,3.81,7.86,4.18,12.18.43,4.88-2,11.76-6.26,14.28-.35.09-.72.17-1.1.25l-.66.14a21.26,21.26,0,0,0-9.23,4.51,24.93,24.93,0,0,0-3.6,3.84c1.26-6.66,1-12.94.7-18.16-.08-1.55-.15-3-.17-4.34-.1-6.48-.06-14.71,2.65-20.68.13-.29,1-2.31.77-2.4s-1.17,1.83-1.3,2.12c-2.8,6.18-3.36,14.38-3.25,21,0,1.34.09,2.82.17,4.38.29,5.9.64,13.18-1.33,20.75-.52-3.19-1.06-6.5-2.86-9.25a16,16,0,0,0-5-4.63,23.54,23.54,0,0,1-7.7-19.75A27.87,27.87,0,0,1,163,11.29a63.12,63.12,0,0,1,5.78-3.65A58.36,58.36,0,0,0,175.05,3.61Zm13.38,7.51c1,1.9,2.17,3.8,3.31,5.64l.43.67a34.44,34.44,0,0,1,2.75,5,21.26,21.26,0,0,1,1.5,8.67,29.78,29.78,0,0,1-7.49,18.57l0,0a14.09,14.09,0,0,0-1.68.88,19.13,19.13,0,0,0,3.86-12.74c-.39-4.53-2.46-8.8-4.29-12.57l-4.54-9.37c-.93-5.23,1.17-8.78,3.5-12.08A18.56,18.56,0,0,0,188.43,11.12ZM196.31,49l-.6,0a25.07,25.07,0,0,0,8.16-12.44c1.46-5.1,1.46-10.4,1.64-15.57,0-.31,0-1.69-.3-1.7s-.36,1.39-.37,1.7a63.16,63.16,0,0,1-2.06,15.26c-1.48,5.19-5,10.14-8.92,12.68a15.74,15.74,0,0,0-3,.22,30.79,30.79,0,0,0,6.67-18,24.59,24.59,0,0,0-.54-5.8h0c-1.68-7.09,3.8-14.33,10-17.92a14.13,14.13,0,0,0,1.31,5.51l.1.27a40.51,40.51,0,0,0,2.16,4.53c.66,1.24,1.34,2.52,1.92,3.92a17.75,17.75,0,0,1,.85,11.31,22.8,22.8,0,0,1-3.53,6.71c-1.74,2.39-4.44,4-6.83,5.26-1,.54-2,1.2-2.95,1.84A29.51,29.51,0,0,1,196.31,49ZM178,59.3c-3.55.28-7.08,2.55-9.57,4.89a19.87,19.87,0,0,1,5-6.25,20.12,20.12,0,0,1,8.74-4.26l.65-.14a15.14,15.14,0,0,0,2.41-.66,14.94,14.94,0,0,0,2.21-1.16,16.59,16.59,0,0,1,1.89-1c2.2-.92,4.77-.75,7-.6,4.14.28,8.42.56,12.32,2.08A40.5,40.5,0,0,1,214.23,55a37.67,37.67,0,0,0,6.57,3.2c-2.71,4.09-8,6.55-10.21,7.45-4.44,1.79-8.9,1.12-13.45.2a35.44,35.44,0,0,1-8.4-3.27c-1.11-.55-2.27-1.1-3.43-1.61l-.08,0-.42-.19A14.72,14.72,0,0,0,178,59.3Zm-6.59,14.3A4.55,4.55,0,0,1,170,72.45a12.26,12.26,0,0,1-1-2,5.71,5.71,0,0,1,1.71-6.74,14.65,14.65,0,0,1,7.41-3.32,13.74,13.74,0,0,1,6.34,1.4h0a14.2,14.2,0,0,1-4,8.85C176.55,74.33,173.3,74.38,171.43,73.6ZM160.09,56.91c-2.21-3-5.73-4.72-8.85-6.23a76.86,76.86,0,0,1-10.86-6,26.71,26.71,0,0,1-8.33-8.88,10.45,10.45,0,0,1-1.52-6.08,15.72,15.72,0,0,1,.63-2.72,10.7,10.7,0,0,0,.65-4.32c2.24.82,4.49,3,6.16,5.91a45.18,45.18,0,0,1,2.09,4.39,45.15,45.15,0,0,0,2.05,4.35,24,24,0,0,0,7.52,8.18c.72.48,1.47.93,2.24,1.36h0c.9.51,1.82,1,2.73,1.45,1.45.75,2.87,1.49,4.18,2.31.05,0,.28.16.41.27a14.17,14.17,0,0,1,4.3,4.07c1.68,2.57,2.2,5.77,2.7,8.87.13.85.27,1.71.44,2.57a.06.06,0,0,0,0,0,19.31,19.31,0,0,0,1.88,5.78c-2.52-1.26-4-4.2-4.66-6-.33-.88-.63-1.81-.91-2.7A22.31,22.31,0,0,0,160.09,56.91Z" transform="translate(-4.02 -1.38)"/><text class="cls-9" transform="translate(173.11 130.79)">Love<tspan class="cls-10" x="211.83" y="0">me</tspan></text></svg>